<svg width="40" height="16" viewBox="0 0 40 16" fill="none" xmlns="http://www.w3.org/2000/svg">
<path d="M5.7959 2.99819C6.25318 3.00521 6.79509 3.45715 7.87793 4.35952L10.3369 6.40835C10.9917 6.95397 11.3189 7.22723 11.4385 7.55386C11.5433 7.84065 11.5433 8.15573 11.4385 8.44253C11.319 8.76928 10.9918 9.04233 10.3369 9.58804L7.87793 11.6378C6.79509 12.5402 6.25318 12.9912 5.7959 12.9982C5.39834 13.0042 5.01944 12.827 4.76953 12.5177C4.4823 12.1619 4.48242 11.4564 4.48242 10.047V5.94937C4.48242 4.53969 4.4821 3.83442 4.76953 3.47866C5.01944 3.16941 5.39834 2.9922 5.7959 2.99819Z" fill="white" fill-opacity="0.1"/>
<path d="M17.7959 2.99819C18.2532 3.00521 18.7951 3.45715 19.8779 4.35952L22.3369 6.40835C22.9917 6.95397 23.3189 7.22723 23.4385 7.55386C23.5433 7.84065 23.5433 8.15573 23.4385 8.44253C23.319 8.76928 22.9918 9.04233 22.3369 9.58804L19.8779 11.6378C18.7951 12.5402 18.2532 12.9912 17.7959 12.9982C17.3983 13.0042 17.0194 12.827 16.7695 12.5177C16.4823 12.1619 16.4824 11.4564 16.4824 10.047V5.94937C16.4824 4.53969 16.4821 3.83442 16.7695 3.47866C17.0194 3.16941 17.3983 2.9922 17.7959 2.99819Z" fill="white" fill-opacity="0.4"/>
<path d="M29.7959 2.99819C30.2532 3.00521 30.7951 3.45715 31.8779 4.35952L34.3369 6.40835C34.9917 6.95397 35.3189 7.22723 35.4385 7.55386C35.5433 7.84065 35.5433 8.15573 35.4385 8.44253C35.319 8.76928 34.9918 9.04233 34.3369 9.58804L31.8779 11.6378C30.7951 12.5402 30.2532 12.9912 29.7959 12.9982C29.3983 13.0042 29.0194 12.827 28.7695 12.5177C28.4823 12.1619 28.4824 11.4564 28.4824 10.047V5.94937C28.4824 4.53969 28.4821 3.83442 28.7695 3.47866C29.0194 3.16941 29.3983 2.9922 29.7959 2.99819Z" fill="white" fill-opacity="0.8"/>
</svg>
