<svg width="40" height="16" viewBox="0 0 40 16" fill="none" xmlns="http://www.w3.org/2000/svg">
<path d="M10.2045 2.99819C10.6019 2.99233 10.9801 3.16952 11.2299 3.47866C11.5171 3.83448 11.517 4.5392 11.517 5.94838V10.047C11.517 11.4562 11.5171 12.1609 11.2299 12.5167C10.9801 12.8259 10.6019 13.0031 10.2045 12.9972C9.74721 12.9903 9.2054 12.5393 8.12248 11.6369L5.6635 9.58803C5.00821 9.04195 4.68044 8.76845 4.56096 8.44155C4.45624 8.15489 4.45625 7.84051 4.56096 7.55385C4.68044 7.22695 5.00821 6.95344 5.6635 6.40737L8.12248 4.35854C9.20542 3.4561 9.74721 3.00508 10.2045 2.99819Z" fill="white" fill-opacity="0.8"/>
<path d="M22.2045 2.99819C22.6019 2.99233 22.9801 3.16952 23.2299 3.47866C23.5171 3.83448 23.517 4.5392 23.517 5.94838V10.047C23.517 11.4562 23.5171 12.1609 23.2299 12.5167C22.9801 12.8259 22.6019 13.0031 22.2045 12.9972C21.7472 12.9903 21.2054 12.5393 20.1225 11.6369L17.6635 9.58803C17.0082 9.04195 16.6804 8.76845 16.561 8.44155C16.4562 8.15489 16.4562 7.84051 16.561 7.55385C16.6804 7.22695 17.0082 6.95344 17.6635 6.40737L20.1225 4.35854C21.2054 3.4561 21.7472 3.00508 22.2045 2.99819Z" fill="white" fill-opacity="0.4"/>
<path d="M34.2045 2.99819C34.6019 2.99233 34.9801 3.16952 35.2299 3.47866C35.5171 3.83448 35.517 4.5392 35.517 5.94838V10.047C35.517 11.4562 35.5171 12.1609 35.2299 12.5167C34.9801 12.8259 34.6019 13.0031 34.2045 12.9972C33.7472 12.9903 33.2054 12.5393 32.1225 11.6369L29.6635 9.58803C29.0082 9.04195 28.6804 8.76845 28.561 8.44155C28.4562 8.15489 28.4562 7.84051 28.561 7.55385C28.6804 7.22695 29.0082 6.95344 29.6635 6.40737L32.1225 4.35854C33.2054 3.4561 33.7472 3.00508 34.2045 2.99819Z" fill="white" fill-opacity="0.1"/>
</svg>
