<svg width="20" height="23" viewBox="0 0 20 23" fill="none" xmlns="http://www.w3.org/2000/svg">
<path d="M9.5139 1.43457L8.15062 3.06445C8.05435 3.18901 7.9623 3.29657 7.87523 3.38965C10.819 2.87681 13.9582 3.75684 16.2317 6.03027C19.9416 9.74026 19.9416 15.7559 16.2317 19.4658C12.5217 23.1757 6.50609 23.1757 2.79613 19.4658C-0.913834 15.7559 -0.913792 9.74026 2.79613 6.03027L4.21019 7.44434C1.28146 10.3731 1.2817 15.1218 4.21019 18.0508C7.13912 20.9797 11.8887 20.9797 14.8176 18.0508C17.7461 15.1218 17.7463 10.3731 14.8176 7.44434C12.9867 5.61344 10.4444 4.92763 8.08031 5.38574L9.5139 7.09082L8.09984 8.50488L3.85667 4.2627L8.09984 0.0195312L9.5139 1.43457ZM13.4914 11.0742H10.4993L10.3537 12.8105H10.3801C10.6394 12.3843 11.1452 12.1162 11.7912 12.1162C13.004 12.1164 13.8743 13.0084 13.8743 14.2432C13.8742 15.5879 12.8806 16.502 11.426 16.502C10.0638 16.5019 9.08372 15.6928 9.04417 14.5459H10.2707C10.3454 15.082 10.8197 15.4511 11.4348 15.4512C12.1291 15.4512 12.6086 14.9683 12.6086 14.2783C12.6086 13.5752 12.1291 13.083 11.4436 13.083C10.9649 13.0831 10.552 13.3026 10.3323 13.667H9.14574L9.45726 10.0195H13.4914V11.0742ZM7.97191 16.3613H6.65745V11.2373H6.63109L5.0139 12.3535V11.1582L6.65355 10.0195H7.97191V16.3613Z" fill="white" fill-opacity="0.94"/>
</svg>
