<svg width="72" height="54" viewBox="0 0 72 54" fill="none" xmlns="http://www.w3.org/2000/svg">
<path fill-rule="evenodd" clip-rule="evenodd" d="M57 0H4C1.79086 0 0 1.79083 0 4V50C0 52.2092 1.79086 54 4 54H68C70.2091 54 72 52.2092 72 50V14.9998H60.7333C58.6714 14.9998 57 13.3284 57 11.2665V0ZM19.8337 18.3334C20.57 17.597 21.7639 17.597 22.5003 18.3334L24.5001 20.3332L26.4999 18.3333C27.2363 17.5969 28.4302 17.5969 29.1666 18.3333C29.903 19.0697 29.903 20.2636 29.1666 21L27.1667 22.9998L29.1669 25C29.9033 25.7363 29.9033 26.9302 29.1669 27.6666C28.4306 28.403 27.2367 28.403 26.5003 27.6666L24.5001 25.6664L22.5 27.6666C21.7636 28.403 20.5697 28.403 19.8333 27.6666C19.097 26.9302 19.097 25.7363 19.8333 24.9999L21.8335 22.9998L19.8337 21C19.0973 20.2636 19.0973 19.0697 19.8337 18.3334ZM45.4984 18.3334C44.762 17.597 43.5681 17.597 42.8317 18.3334C42.0953 19.0698 42.0953 20.2637 42.8317 21L44.8315 22.9998L42.8314 25C42.095 25.7363 42.095 26.9302 42.8314 27.6666C43.5677 28.403 44.7617 28.403 45.498 27.6666L47.4982 25.6664L49.4984 27.6666C50.2347 28.403 51.4286 28.403 52.165 27.6666C52.9014 26.9303 52.9014 25.7364 52.165 25L50.1648 22.9998L52.1646 21C52.901 20.2636 52.901 19.0697 52.1646 18.3334C51.4283 17.597 50.2344 17.597 49.498 18.3334L47.4982 20.3332L45.4984 18.3334ZM24.8087 42.8292L24.8076 42.8297C23.7997 43.2743 22.6202 42.8199 22.1724 41.8123C21.7238 40.8029 22.1783 39.621 23.1877 39.1724L24 41C23.1877 39.1724 23.1889 39.1719 23.1889 39.1719L23.1902 39.1713L23.193 39.17L23.1999 39.167L23.2187 39.1588L23.2425 39.1486L23.2762 39.1343C23.3234 39.1144 23.388 39.0878 23.4698 39.0553C23.6333 38.9904 23.8654 38.9021 24.1633 38.7985C24.7588 38.5914 25.6177 38.3226 26.7163 38.0563C28.9132 37.5237 32.072 37 36 37C39.928 37 43.0868 37.5237 45.2837 38.0563C46.3823 38.3226 47.2412 38.5914 47.8367 38.7985C47.9387 38.834 48.033 38.8677 48.1195 38.8992C48.2855 38.9598 48.4227 39.0126 48.5302 39.0553C48.5704 39.0713 48.6065 39.0858 48.6384 39.0989C48.6713 39.1124 48.6998 39.1242 48.7238 39.1343L48.7677 39.1529L48.7813 39.1588L48.8001 39.167L48.807 39.17L48.8099 39.1713L48.8111 39.1719C48.8111 39.1719 48.8112 39.1719 48.8075 39.1806L48.7938 39.2121L48.8123 39.1724C49.8217 39.621 50.2762 40.8029 49.8276 41.8123C49.3798 42.8199 48.2013 43.2746 47.1931 42.83L47.1913 42.8292L36.8962 42.8291L47.1899 42.8286L47.1715 42.8208C47.149 42.8113 47.1097 42.795 47.0538 42.7728C46.9419 42.7284 46.7639 42.6604 46.5226 42.5765C46.0401 42.4086 45.3052 42.1774 44.3413 41.9437C42.4132 41.4763 39.572 41 36 41C32.428 41 29.5868 41.4763 27.6587 41.9437C26.6948 42.1774 25.9599 42.4086 25.4774 42.5765C25.2361 42.6604 25.0581 42.7284 24.9462 42.7728C24.8903 42.795 24.851 42.8113 24.8285 42.8208L24.8112 42.8281L36.8962 42.8291L24.8087 42.8292Z" fill="#E7E7F8" fill-opacity="0.18"/>
<path d="M71.9998 10.9998H61V0L71.9998 10.9998Z" fill="#E7E7F8" fill-opacity="0.18"/>
</svg>
