<svg width="19" height="23" viewBox="0 0 19 23" fill="none" xmlns="http://www.w3.org/2000/svg">
<path d="M15.1572 4.26562L10.9141 8.50879L9.50002 7.09473L10.9336 5.38867C8.56956 4.93059 6.02717 5.61737 4.1963 7.44824C1.26776 10.3772 1.26764 15.1259 4.1963 18.0547C7.12524 20.9836 11.8748 20.9836 14.8037 18.0547C17.7324 15.1259 17.7323 10.3772 14.8037 7.44824L16.2178 6.03418C19.9274 9.74414 19.9275 15.7589 16.2178 19.4688C12.5078 23.1787 6.49222 23.1787 2.78224 19.4688C-0.927476 15.7589 -0.927352 9.74414 2.78224 6.03418C5.05566 3.76076 8.19495 2.87977 11.1387 3.39258C11.0517 3.29962 10.9594 3.19271 10.8633 3.06836L9.50002 1.4375L10.9141 0.0234375L15.1572 4.26562ZM13.4776 11.0781H10.4854L10.3399 12.8135H10.3662C10.6255 12.3873 11.1315 12.1191 11.7774 12.1191C12.99 12.1193 13.8602 13.0115 13.8604 14.2461C13.8604 15.5908 12.8667 16.5049 11.4121 16.5049C10.05 16.5048 9.06988 15.6967 9.03029 14.5498H10.2569C10.3316 15.0858 10.8058 15.455 11.4209 15.4551C12.1152 15.4551 12.5947 14.9712 12.5947 14.2812C12.5946 13.5783 12.1151 13.0859 11.4297 13.0859C10.9508 13.086 10.5381 13.3062 10.3184 13.6709H9.13185L9.44337 10.0234H13.4776V11.0781ZM7.95705 16.3643H6.64357V11.2402H6.6172L5.00001 12.3564V11.1611L6.63869 10.0234H7.95705V16.3643Z" fill="white" fill-opacity="0.94"/>
</svg>
