<svg width="24" height="24" viewBox="0 0 24 24" fill="none" xmlns="http://www.w3.org/2000/svg">
<path d="M10 13C11.8638 13.0001 13.43 14.2748 13.874 16H20V18H13.874C13.4299 19.7251 11.8637 20.9999 10 21C8.13623 21 6.57009 19.7251 6.12598 18H4V16H6.12598C6.57002 14.2748 8.13616 13 10 13ZM10 15C8.89543 15 8 15.8954 8 17C8.0001 18.1045 8.89549 19 10 19C11.1044 18.9999 11.9999 18.1044 12 17C12 15.8955 11.1045 15.0001 10 15ZM14 3C15.8639 3.00006 17.4301 4.27471 17.874 6H20V8H17.874C17.43 9.72513 15.8637 10.9999 14 11C12.1362 11 10.5701 9.72513 10.126 8H4V6H10.126C10.57 4.27477 12.1362 3 14 3ZM14 5C12.8954 5 12 5.89543 12 7C12.0001 8.10449 12.8955 9 14 9C15.1044 8.99992 15.9999 8.10444 16 7C16 5.89548 15.1045 5.00008 14 5Z" fill="white" fill-opacity="0.94"/>
</svg>
