<svg width="24" height="24" viewBox="0 0 24 24" fill="none" xmlns="http://www.w3.org/2000/svg">
<path d="M5 10C6.10456 10 7 10.8954 7 12C7 12.9329 6.36113 13.7165 5.49707 13.9375C5.33822 13.9781 5.17151 14 5 14C3.89543 14 3 13.1046 3 12C3 11.0626 3.64533 10.2763 4.51562 10.0596C4.67075 10.021 4.83293 10 5 10ZM12 10C13.1046 10 14 10.8954 14 12C14 12.9329 13.3611 13.7165 12.4971 13.9375C12.3382 13.9781 12.1715 14 12 14C10.8954 14 10 13.1046 10 12C10 11.0626 10.6453 10.2763 11.5156 10.0596C11.6707 10.021 11.8329 10 12 10ZM19 10C20.1046 10 21 10.8954 21 12C21 12.933 20.3611 13.7165 19.4971 13.9375C19.3382 13.9781 19.1715 14 19 14C17.8954 14 17 13.1046 17 12C17 10.8954 17.8954 10 19 10Z" fill="white" fill-opacity="0.94"/>
</svg>
