<svg width="24" height="24" viewBox="0 0 24 24" fill="none" xmlns="http://www.w3.org/2000/svg">
<path d="M12.3584 2.00684C12.3874 2.00788 12.4164 2.00945 12.4453 2.01074C12.4831 2.01242 12.5209 2.01449 12.5586 2.0166C12.6717 2.02295 12.7844 2.03186 12.8965 2.04199C12.9437 2.04624 12.991 2.04978 13.0381 2.05469C13.1746 2.06899 13.3105 2.0857 13.4453 2.10547C13.4824 2.11089 13.5196 2.11721 13.5566 2.12305C13.6676 2.14059 13.778 2.16049 13.8877 2.18164C13.9316 2.19008 13.9758 2.19801 14.0195 2.20703C14.1486 2.23371 14.2771 2.26242 14.4043 2.29395C14.4271 2.29959 14.4499 2.30572 14.4727 2.31152C14.5718 2.33683 14.6706 2.36343 14.7686 2.3916L14.7676 2.39355C15.4869 2.60077 16.1808 2.88704 16.8359 3.24902L16.8369 3.24805C16.8861 3.2753 16.9347 3.30398 16.9834 3.33203C17.107 3.40308 17.229 3.47732 17.3496 3.55371C17.3848 3.57604 17.4202 3.59834 17.4551 3.62109C17.5303 3.67005 17.6048 3.72046 17.6787 3.77148C17.7183 3.79883 17.7577 3.8266 17.7969 3.85449C18.0355 4.02432 18.2671 4.20518 18.4912 4.39648C18.5275 4.42748 18.5638 4.45874 18.5996 4.49023C18.6686 4.55084 18.7373 4.61217 18.8047 4.6748C18.8215 4.69043 18.8378 4.70692 18.8545 4.72266C18.9269 4.79087 19.0007 4.85815 19.0713 4.92871L19.2764 5.14453C19.2921 5.16123 19.3086 5.17753 19.3242 5.19434L19.4131 5.28809C19.4476 5.32622 19.4798 5.36667 19.5137 5.40527C19.539 5.43416 19.5648 5.46301 19.5898 5.49219C19.7863 5.72133 19.9716 5.95868 20.1455 6.20312C20.1656 6.23138 20.1862 6.25962 20.2061 6.28809C20.2547 6.35797 20.3019 6.42899 20.3486 6.5C20.3772 6.54333 20.4057 6.58706 20.4336 6.63086C20.4736 6.69377 20.5141 6.75658 20.5527 6.82031C20.6068 6.90935 20.6587 6.99999 20.71 7.09082C21.1126 7.80525 21.4258 8.56642 21.6426 9.35742C21.6683 9.45154 21.6927 9.54641 21.7158 9.6416C21.7288 9.69509 21.7408 9.749 21.7529 9.80273C21.7713 9.88406 21.7893 9.96579 21.8057 10.0479C21.8137 10.0882 21.8225 10.1285 21.8301 10.1689C21.881 10.4418 21.9199 10.7189 21.9482 10.999C21.9531 11.0474 21.9578 11.096 21.9619 11.1445C21.9704 11.2427 21.9769 11.3415 21.9824 11.4404C21.9852 11.4908 21.9882 11.5413 21.9902 11.5918C21.9909 11.6083 21.9926 11.625 21.9932 11.6416L22 12L21.9932 12.3584C21.9921 12.3877 21.9896 12.4171 21.9883 12.4463C21.9866 12.4831 21.9845 12.5199 21.9824 12.5566C21.976 12.6711 21.9673 12.7851 21.957 12.8984C21.9528 12.945 21.9492 12.9917 21.9443 13.0381C21.93 13.1746 21.9133 13.3105 21.8936 13.4453C21.8881 13.4825 21.8818 13.5196 21.876 13.5566C21.8582 13.6689 21.8388 13.7806 21.8174 13.8916C21.8095 13.9326 21.8014 13.9737 21.793 14.0146C21.7404 14.2698 21.6797 14.5218 21.6084 14.7695L21.6055 14.7686C21.3982 15.4876 21.1119 16.181 20.75 16.8359L20.752 16.8379C20.7164 16.9021 20.6785 16.965 20.6416 17.0283C20.5989 17.1017 20.5553 17.1747 20.5107 17.2471C20.4643 17.3223 20.4166 17.3968 20.3682 17.4707C20.3274 17.5331 20.2854 17.5947 20.2432 17.6562C20.2033 17.7142 20.1631 17.772 20.1221 17.8291C20.0816 17.8855 20.0417 17.9424 20 17.998C19.9517 18.0624 19.9014 18.1253 19.8516 18.1885C19.7795 18.2799 19.7053 18.3699 19.6299 18.459C19.5838 18.5134 19.5375 18.5677 19.4902 18.6211C19.4411 18.6766 19.3913 18.7316 19.3408 18.7861C19.3171 18.8118 19.2936 18.8378 19.2695 18.8633C19.2039 18.9328 19.1391 19.0035 19.0713 19.0713C19.0186 19.1239 18.9629 19.1733 18.9092 19.2246C18.8678 19.2642 18.8263 19.3038 18.7842 19.3428C18.7311 19.3918 18.678 19.4405 18.624 19.4883C18.5677 19.5382 18.5106 19.5871 18.4531 19.6357C18.3989 19.6816 18.3451 19.7279 18.29 19.7725C18.1942 19.8501 18.0968 19.9259 17.998 20C17.9463 20.0388 17.8932 20.0756 17.8408 20.1133C17.7762 20.1599 17.7112 20.2059 17.6455 20.251C17.5901 20.2889 17.5346 20.3265 17.4785 20.3633C17.392 20.4201 17.3042 20.4751 17.2158 20.5293C17.1642 20.5608 17.1127 20.5925 17.0605 20.623C16.9863 20.6667 16.9124 20.7111 16.8369 20.7529L16.835 20.75C16.1799 21.1119 15.4867 21.3983 14.7676 21.6055L14.7686 21.6094C14.5146 21.6824 14.2559 21.7436 13.9941 21.7969C13.9652 21.8028 13.9362 21.8088 13.9072 21.8145C13.7911 21.837 13.6742 21.8574 13.5566 21.876C13.5196 21.8818 13.4825 21.8881 13.4453 21.8936C13.3021 21.9145 13.1578 21.9325 13.0127 21.9473C12.9851 21.9501 12.9573 21.9525 12.9297 21.9551C12.8067 21.9666 12.6829 21.9755 12.5586 21.9824C12.5209 21.9845 12.4831 21.9866 12.4453 21.9883C12.2977 21.9948 12.1492 22 12 22C11.039 22 10.1101 21.8624 9.23047 21.6094L9.7832 19.6895C10.397 19.866 11.043 19.9715 11.7119 19.9951L12 20C12.2696 20 12.5358 19.9858 12.7979 19.96C14.0946 19.8301 15.3358 19.3849 16.416 18.6699C17.3094 18.0769 18.0769 17.3094 18.6699 16.416C19.4485 15.2397 19.9053 13.8721 19.9854 12.4502C19.987 12.4197 19.9899 12.389 19.9912 12.3584C19.9965 12.2393 20 12.1197 20 12C20 11.8803 19.9965 11.7607 19.9912 11.6416C19.9851 11.5036 19.9748 11.3664 19.9619 11.2305C19.8334 9.90009 19.3741 8.62685 18.6309 7.52539C18.0433 6.65684 17.29 5.90913 16.416 5.3291C15.3359 4.61429 14.0944 4.16893 12.7979 4.03906C12.6536 4.02483 12.5079 4.01528 12.3613 4.00879C12.2413 4.00337 12.1207 4 12 4C11.2281 4 10.4847 4.10878 9.7832 4.31055L9.23047 2.3916C10.1102 2.1385 11.0389 2 12 2L12.3584 2.00684ZM4.99609 15.8691C5.725 17.185 6.81497 18.275 8.13086 19.0039L7.16211 20.7529C5.51799 19.8423 4.15778 18.482 3.24707 16.8379L4.99609 15.8691ZM9 8.34473C9 7.69166 9.72224 7.28675 10.2939 7.61914L16.5791 11.2744C17.1401 11.601 17.1402 12.3991 16.5791 12.7256L10.2939 16.3809C9.7223 16.7132 9.00013 16.3082 9 15.6553V8.34473ZM4.31055 9.7832C4.10879 10.4847 4 11.2281 4 12C4.00002 12.7719 4.10878 13.5153 4.31055 14.2168L2.39062 14.7695C2.13757 13.8899 2.00002 12.961 2 12C2 11.0393 2.13775 10.1108 2.39062 9.23145L4.31055 9.7832ZM8.13086 4.99609C6.81491 5.725 5.725 6.81491 4.99609 8.13086L3.24707 7.16309C4.15771 5.5187 5.51786 4.1589 7.16211 3.24805L8.13086 4.99609Z" fill="white" fill-opacity="0.94"/>
</svg>
