<svg width="24" height="24" viewBox="0 0 24 24" fill="none" xmlns="http://www.w3.org/2000/svg">
<path d="M5 22H2V20H5V22Z" fill="#9747FF"/>
<path d="M13 22H6V20H13V22Z" fill="#9747FF"/>
<path d="M22 22H14V20H22V22Z" fill="#9747FF"/>
<path d="M7.87305 19.127H6.58789L6.7998 14.9092H8.98047L7.87305 19.127Z" fill="#9747FF"/>
<path d="M16.0723 8.8457H11.6699L11.4785 11.1768L11.54 11.1904C11.7724 10.9216 12.0552 10.7256 12.3877 10.6025C12.7203 10.475 13.0669 10.4112 13.4268 10.4111C13.8824 10.4111 14.3041 10.491 14.6914 10.6504C15.0787 10.8053 15.4115 11.0287 15.6895 11.3203C15.972 11.6074 16.1908 11.9584 16.3457 12.373C16.5052 12.7878 16.585 13.2503 16.585 13.7607C16.585 14.2757 16.5007 14.7428 16.332 15.1621C16.1634 15.5813 15.9218 15.9414 15.6074 16.2422C15.293 16.5383 14.9078 16.7686 14.4521 16.9326C14.0011 17.092 13.4927 17.1719 12.9277 17.1719C12.4448 17.1718 11.9979 17.1126 11.5879 16.9941C11.1824 16.8711 10.8222 16.6933 10.5078 16.4609C10.198 16.224 9.94038 15.9345 9.73535 15.5928C9.53033 15.251 9.38898 14.8567 9.31152 14.4102H11.2598C11.3964 14.7655 11.604 15.0368 11.8818 15.2236C12.1643 15.4059 12.5132 15.497 12.9277 15.4971C13.4472 15.4971 13.8574 15.3397 14.1582 15.0254C14.4635 14.7109 14.6162 14.2552 14.6162 13.6582C14.6162 13.0703 14.4704 12.6283 14.1787 12.332C13.8871 12.0314 13.4791 11.8809 12.9551 11.8809C12.5861 11.8809 12.2646 11.9538 11.9912 12.0996C11.7179 12.2409 11.4898 12.4483 11.3076 12.7217H9.60547L10.0361 7.13672H16.0723V8.8457Z" fill="#9747FF"/>
<path d="M22.6572 12.8135L21.2432 14.2275L22.6572 15.6416L21.2432 17.0557L19.8291 15.6416L18.415 17.0557L17 15.6416L18.4141 14.2266L17.001 12.8135L18.415 11.3994L19.8281 12.8125L21.2432 11.3984L22.6572 12.8135Z" fill="#9747FF"/>
<path d="M6.08594 17.001H4.11719V9.33105L4.08984 9.31055L1.60156 11.0674V9.0166L4.24707 7.13672H6.08594V17.001Z" fill="#9747FF"/>
<path d="M5 5H2V3H5V5Z" fill="#9747FF"/>
<path d="M13 5H6V3H13V5Z" fill="#9747FF"/>
<path d="M22 5H14V3H22V5Z" fill="#9747FF"/>
</svg>
