<svg width="24" height="24" viewBox="0 0 24 24" fill="none" xmlns="http://www.w3.org/2000/svg">
<path d="M5 22H2V20H5V22Z" fill="#9747FF"/>
<path d="M13 22H6V20H13V22Z" fill="#9747FF"/>
<path d="M22 22H14V20H22V22Z" fill="#9747FF"/>
<path d="M7.87305 19.126H6.58789L6.7998 14.9082H8.98047L7.87305 19.126Z" fill="#9747FF"/>
<path d="M22.6572 12.8135L21.2432 14.2275L22.6572 15.6416L21.2432 17.0557L19.8291 15.6416L18.415 17.0557L17 15.6416L18.4141 14.2266L17.001 12.8135L18.415 11.3994L19.8281 12.8125L21.2432 11.3984L22.6572 12.8135Z" fill="#9747FF"/>
<path d="M6.08594 17H4.11719V9.33008L4.08984 9.30957L1.60156 11.0664V9.01562L4.24707 7.13574H6.08594V17Z" fill="#9747FF"/>
<path d="M12.8389 6.96484C13.3628 6.96484 13.837 7.04012 14.2607 7.19043C14.689 7.33623 15.0538 7.54143 15.3545 7.80566C15.6598 8.06995 15.8945 8.3845 16.0586 8.74902C16.2272 9.10905 16.3115 9.50326 16.3115 9.93164C16.3115 10.2689 16.2568 10.5902 16.1475 10.8955C16.0426 11.1962 15.8831 11.5017 15.6689 11.8115C15.4593 12.1168 15.1949 12.4314 14.876 12.7549C14.5616 13.0784 14.1923 13.4272 13.7686 13.8008L12.21 15.1748V15.2227H16.2705V17H9.35254V15.5576L12.5039 12.7002C12.8228 12.4086 13.0964 12.1442 13.3242 11.9072C13.552 11.6658 13.739 11.4378 13.8848 11.2236C14.0306 11.0095 14.1377 10.8043 14.2061 10.6084C14.2744 10.4079 14.3086 10.2028 14.3086 9.99316C14.3086 9.81087 14.279 9.63997 14.2197 9.48047C14.1605 9.32102 14.0693 9.18193 13.9463 9.06348C13.8278 8.94508 13.6773 8.85381 13.4951 8.79004C13.3129 8.72177 13.0985 8.6875 12.8525 8.6875C12.6248 8.68754 12.4172 8.72172 12.2305 8.79004C12.0438 8.85839 11.8818 8.95646 11.7451 9.08398C11.6085 9.21155 11.4967 9.36663 11.4102 9.54883C11.3282 9.72652 11.278 9.92487 11.2598 10.1436H9.35254C9.35254 9.6651 9.43689 9.22978 9.60547 8.83789C9.77405 8.44606 10.0112 8.11324 10.3164 7.83984C10.6262 7.56192 10.9933 7.34765 11.417 7.19727C11.8453 7.04236 12.3195 6.96488 12.8389 6.96484Z" fill="#9747FF"/>
<path d="M5 5H2V3H5V5Z" fill="#9747FF"/>
<path d="M13 5H6V3H13V5Z" fill="#9747FF"/>
<path d="M22 5H14V3H22V5Z" fill="#9747FF"/>
</svg>
