<svg width="24" height="24" viewBox="0 0 24 24" fill="none" xmlns="http://www.w3.org/2000/svg">
<path d="M5 22H2V20H5V22Z" fill="#9747FF"/>
<path d="M13 22H6V20H13V22Z" fill="#9747FF"/>
<path d="M22 22H14V20H22V22Z" fill="#9747FF"/>
<path d="M4.9209 19.127H3.63574L3.84766 14.9092H6.02832L4.9209 19.127Z" fill="#9747FF"/>
<path d="M13.1201 8.8457H8.71777L8.52637 11.1768L8.58789 11.1904C8.82027 10.9216 9.10294 10.7256 9.43555 10.6025C9.76817 10.475 10.1147 10.4112 10.4746 10.4111C10.9303 10.4111 11.3519 10.4909 11.7393 10.6504C12.1266 10.8053 12.4593 11.0287 12.7373 11.3203C13.0198 11.6074 13.2386 11.9584 13.3936 12.373C13.5531 12.7878 13.6328 13.2503 13.6328 13.7607C13.6328 14.2757 13.5485 14.7428 13.3799 15.1621C13.2113 15.5814 12.9697 15.9414 12.6553 16.2422C12.3408 16.5384 11.9557 16.7686 11.5 16.9326C11.0489 17.0921 10.5406 17.1719 9.97559 17.1719C9.49259 17.1719 9.04584 17.1126 8.63574 16.9941C8.23022 16.8711 7.87007 16.6933 7.55566 16.4609C7.24582 16.224 6.98825 15.9345 6.7832 15.5928C6.57815 15.251 6.43684 14.8567 6.35938 14.4102H8.30762C8.44431 14.7656 8.65176 15.0368 8.92969 15.2236C9.2122 15.4059 9.56096 15.497 9.97559 15.4971C10.4951 15.4971 10.9053 15.3398 11.2061 15.0254C11.5114 14.7109 11.6641 14.2552 11.6641 13.6582C11.6641 13.0703 11.5182 12.6283 11.2266 12.332C10.9349 12.0313 10.527 11.8809 10.0029 11.8809C9.63387 11.8809 9.31245 11.9538 9.03906 12.0996C8.76569 12.2409 8.53773 12.4483 8.35547 12.7217H6.65332L7.08398 7.13672H13.1201V8.8457Z" fill="#9747FF"/>
<path d="M20.6562 12.8125L19.2422 14.2256L20.6572 15.6406L19.2432 17.0557L17.8281 15.6406L16.4141 17.0547L15 15.6406L16.4141 14.2266L15 12.8125L16.4141 11.3984L17.8281 12.8115L19.2422 11.3984L20.6562 12.8125Z" fill="#9747FF"/>
<path d="M5 5H2V3H5V5Z" fill="#9747FF"/>
<path d="M13 5H6V3H13V5Z" fill="#9747FF"/>
<path d="M22 5H14V3H22V5Z" fill="#9747FF"/>
</svg>
