<svg width="24" height="24" viewBox="0 0 24 24" fill="none" xmlns="http://www.w3.org/2000/svg">
<path d="M5 22H2V20H5V22Z" fill="#9747FF"/>
<path d="M13 22H6V20H13V22Z" fill="#9747FF"/>
<path d="M22 22H14V20H22V22Z" fill="#9747FF"/>
<path d="M17.4561 12.8125L16.042 14.2256L17.457 15.6406L16.043 17.0557L14.6279 15.6406L13.2139 17.0547L11.7998 15.6406L13.2139 14.2266L11.7998 12.8125L13.2139 11.3984L14.6279 12.8115L16.042 11.3984L17.4561 12.8125Z" fill="#9747FF"/>
<path d="M10.0859 17.001H8.11719V9.33105L8.08984 9.31055L5.60156 11.0674V9.0166L8.24707 7.13672H10.0859V17.001Z" fill="#9747FF"/>
<path d="M5 5H2V3H5V5Z" fill="#9747FF"/>
<path d="M13 5H6V3H13V5Z" fill="#9747FF"/>
<path d="M22 5H14V3H22V5Z" fill="#9747FF"/>
</svg>
