<svg width="24" height="24" viewBox="0 0 24 24" fill="none" xmlns="http://www.w3.org/2000/svg">
<path d="M5 22H2V20H5V22Z" fill="#9747FF"/>
<path d="M13 22H6V20H13V22Z" fill="#9747FF"/>
<path d="M22 22H14V20H22V22Z" fill="#9747FF"/>
<path d="M18.6572 12.8135L17.2432 14.2275L18.6572 15.6416L17.2432 17.0557L15.8291 15.6416L14.415 17.0557L13 15.6416L14.4141 14.2266L13.001 12.8135L14.415 11.3994L15.8281 12.8125L17.2432 11.3984L18.6572 12.8135Z" fill="#9747FF"/>
<path d="M8.23145 6.96484C8.75553 6.96484 9.22949 7.04004 9.65332 7.19043C10.0817 7.33626 10.4463 7.54134 10.7471 7.80566C11.0524 8.06999 11.2871 8.38444 11.4512 8.74902C11.6198 9.10905 11.7041 9.50326 11.7041 9.93164C11.7041 10.2689 11.6494 10.5902 11.54 10.8955C11.4352 11.1963 11.2757 11.5016 11.0615 11.8115C10.8519 12.1169 10.5876 12.4313 10.2686 12.7549C9.9541 13.0785 9.58496 13.4271 9.16113 13.8008L7.60254 15.1748V15.2227H11.6631V17H4.74512V15.5576L7.89648 12.7002C8.21549 12.4085 8.48893 12.1442 8.7168 11.9072C8.94466 11.6657 9.13151 11.4378 9.27734 11.2236C9.42318 11.0094 9.53027 10.8044 9.59863 10.6084C9.66699 10.4079 9.70117 10.2028 9.70117 9.99316C9.70117 9.81087 9.67155 9.63997 9.6123 9.48047C9.55306 9.32096 9.46191 9.18197 9.33887 9.06348C9.22038 8.94499 9.06999 8.85384 8.8877 8.79004C8.7054 8.72168 8.49121 8.6875 8.24512 8.6875C8.01725 8.6875 7.8099 8.72168 7.62305 8.79004C7.4362 8.8584 7.27441 8.95638 7.1377 9.08398C7.00098 9.21159 6.88932 9.36654 6.80273 9.54883C6.7207 9.72656 6.67057 9.9248 6.65234 10.1436H4.74512C4.74512 9.66504 4.82943 9.22982 4.99805 8.83789C5.16667 8.44596 5.40365 8.11328 5.70898 7.83984C6.01888 7.56185 6.38574 7.34766 6.80957 7.19727C7.23796 7.04232 7.71191 6.96484 8.23145 6.96484Z" fill="#9747FF"/>
<path d="M5 5H2V3H5V5Z" fill="#9747FF"/>
<path d="M13 5H6V3H13V5Z" fill="#9747FF"/>
<path d="M22 5H14V3H22V5Z" fill="#9747FF"/>
</svg>
