<svg width="24" height="24" viewBox="0 0 24 24" fill="none" xmlns="http://www.w3.org/2000/svg">
<path d="M10.9082 4.22546C11.3377 3.94771 11.8491 3.94213 12.2588 4.1239C12.6842 4.31279 13 4.70375 13 5.20007V18.8202C12.9915 19.3069 12.6784 19.6895 12.2588 19.8759C11.8491 20.0576 11.3377 20.052 10.9082 19.7743C10.4778 19.4956 6.78906 16.0282 6.78906 16.0282H4.60352C4.17828 16.0282 3.64444 16.0048 3.34375 15.6962C3.04308 15.3876 3 15.1033 3 14.6669V9.29773C3 8.86133 3.04316 8.57993 3.34375 8.27136C3.64444 7.96274 4.17828 7.99987 4.60352 7.99987H6.78906C6.78906 7.99987 10.4777 4.50417 10.9082 4.22546ZM19.4287 6.49987C20.4189 8.05631 21 9.95317 21 11.9999C21 14.0466 20.4189 15.9434 19.4287 17.4999L17.9551 16.4823C18.7796 15.2219 19.2656 13.6736 19.2656 11.9999C19.2656 10.3261 18.7796 8.77782 17.9551 7.51745L19.4287 6.49987ZM16.4795 8.53503C17.1395 9.49828 17.5312 10.6988 17.5312 11.9999C17.5312 13.301 17.1395 14.5015 16.4795 15.4647L15 14.4432C15.4976 13.7801 15.7969 12.9284 15.7969 11.9999C15.7969 11.0713 15.4976 10.2196 15 9.55651L16.4795 8.53503Z" fill="white" fill-opacity="0.94"/>
</svg>
