<svg width="24" height="24" viewBox="0 0 24 24" fill="none" xmlns="http://www.w3.org/2000/svg">
<path d="M10.9082 4.22546C11.3377 3.94771 11.8491 3.94213 12.2588 4.1239C12.6842 4.31279 13 4.70375 13 5.20007V18.8202C12.9915 19.3069 12.6784 19.6895 12.2588 19.8759C11.8491 20.0576 11.3377 20.052 10.9082 19.7743C10.4778 19.4956 6.78906 16.0282 6.78906 16.0282H4.60352C4.17828 16.0282 3.64444 16.0048 3.34375 15.6962C3.04308 15.3876 3 15.1033 3 14.6669V9.29773C3 8.86133 3.04316 8.57993 3.34375 8.27136C3.64444 7.96274 4.17828 7.99987 4.60352 7.99987H6.78906C6.78906 7.99987 10.4777 4.50417 10.9082 4.22546ZM21 10.0634L19.0625 11.9999L21 13.9364L19.9375 14.9999L18 13.0624L16.0625 14.9999L15 13.9374L16.9375 11.9999L15 10.0624L16.0625 8.99987L18 10.9374L19.9375 8.99987L21 10.0634Z" fill="white" fill-opacity="0.94"/>
</svg>
