<svg width="192" height="192" viewBox="0 0 192 192" fill="none" xmlns="http://www.w3.org/2000/svg">
<path d="M94.7954 1.25217L110.163 10.7002L130.372 30.7136L115.005 21.2655L94.7954 1.25217Z" fill="#BA1820"/>
<path d="M115.004 21.2655L130.372 30.7135L36.8164 135.687L21.4487 126.251L115.004 21.2655Z" fill="#7C1718"/>
<path d="M94.7954 1.25217L115.005 21.2655L21.4494 126.251L1.2522 106.225L94.7954 1.25217Z" fill="#E20A22"/>
<path d="M21.9551 126.117L146.836 150.927L138.803 181.312L13.9099 156.501L21.9551 126.117Z" fill="#E20A22"/>
<path d="M146.836 150.928L162.204 160.363L154.17 190.748L138.803 181.312L146.836 150.928Z" fill="#BA1820"/>
<path d="M138.803 181.312L154.17 190.748L29.2776 165.949L13.9099 156.501L138.803 181.312Z" fill="#7C1718"/>
<path d="M175.38 140.824L190.747 150.272L162.505 160.655L147.137 151.219L175.38 140.824Z" fill="#7C1718"/>
<path d="M143.946 11.0042L159.314 20.4522L190.748 150.272L175.38 140.824L143.946 11.0042Z" fill="#BA1820"/>
<path d="M143.945 11.0042L175.379 140.824L147.137 151.219L115.691 21.3995L143.945 11.0042Z" fill="#E20A22"/>
</svg>
