<svg width="8" height="6" viewBox="0 0 8 6" fill="none" xmlns="http://www.w3.org/2000/svg">
<path fill-rule="evenodd" clip-rule="evenodd" d="M6.91138 2.89553C7.63337 1.97187 7.99437 1.51004 7.99988 1.11999C8.00468 0.780917 7.86295 0.458324 7.61555 0.245182C7.33096 4.57524e-07 6.76706 4.10817e-07 5.63928 3.05705e-07L2.36072 1.37567e-10C1.23294 -1.04975e-07 0.669042 -1.52508e-07 0.38445 0.245181C0.137047 0.458324 -0.00467788 0.780917 0.000117908 1.11999C0.0056342 1.51004 0.366631 1.97187 1.08862 2.89553L2.7279 4.99271C3.16476 5.5516 3.38319 5.83104 3.64471 5.93295C3.87415 6.02235 4.12585 6.02235 4.35529 5.93295C4.61681 5.83104 4.83524 5.5516 5.2721 4.99271L6.91138 2.89553Z" fill="#B6BCC3"/>
</svg>
