<svg width="188" height="40" viewBox="0 0 188 40" fill="none" xmlns="http://www.w3.org/2000/svg">
    <g clip-path="url(#clip0_3185_26564)">
        <path d="M58.446 15.3316C63.1527 15.3316 64.6937 11.906 64.7771 10.1306H60.6952C60.4869 10.6736 59.9038 11.5091 58.446 11.5091C56.7799 11.5091 55.8012 9.92164 55.8012 7.66579C55.8012 5.40992 56.7799 3.82246 58.446 3.82246C59.8622 3.82246 60.4869 4.65796 60.6952 5.22194H64.7771C64.6521 3.13316 62.8819 0 58.446 0C54.3017 0 51.4277 2.92429 51.4277 7.66579C51.4277 12.4491 54.3225 15.3316 58.446 15.3316Z" fill="#020001"/>
        <path d="M71.7555 3.73828C68.4027 3.73828 65.9453 5.93149 65.9453 9.54509C65.9453 13.1377 68.4027 15.3727 71.7555 15.3727C75.1084 15.3727 77.5662 13.1377 77.5662 9.54509C77.5662 5.93149 75.1084 3.73828 71.7555 3.73828ZM71.7555 11.9472C70.6103 11.9472 70.0272 10.9445 70.0272 9.54509C70.0272 8.16645 70.6103 7.16387 71.7555 7.16387C72.9012 7.16387 73.4841 8.16645 73.4841 9.54509C73.4841 10.9445 72.9012 11.9472 71.7555 11.9472Z" fill="#020001"/>
        <path d="M83.5834 9.96335C83.5834 8.66835 84.1877 8.08349 85.6662 8.08349H88.3112V4.03125H86.4991C84.5834 4.03125 83.8334 5.01298 83.5834 5.47251V4.03125H79.502V15.0809H83.5834V9.96335Z" fill="#020001"/>
        <path d="M95.2412 3.73828C91.8677 3.73828 89.5977 6.01504 89.5977 9.54509C89.5977 13.0751 91.8048 15.3727 95.4705 15.3727C99.1977 15.3727 100.677 13.2004 100.781 11.6339H96.7198C96.5741 11.8218 96.2405 12.1978 95.4705 12.1978C94.3869 12.1978 93.6791 11.4667 93.6169 10.2762H100.843V9.54509C100.843 6.01504 98.7191 3.73828 95.2412 3.73828ZM95.2412 6.5999C96.1155 6.5999 96.6991 7.14295 96.8241 8.04116H93.6377C93.7419 7.14295 94.3248 6.5999 95.2412 6.5999Z" fill="#020001"/>
        <path d="M58.446 36.2222C63.1527 36.2222 64.6937 32.7966 64.7771 31.0211H60.6952C60.4869 31.5643 59.9038 32.3998 58.446 32.3998C56.7799 32.3998 55.8012 30.8123 55.8012 28.5564C55.8012 26.3006 56.7799 24.7131 58.446 24.7131C59.8622 24.7131 60.4869 25.5486 60.6952 26.1126H64.7771C64.6521 24.0238 62.8819 20.8906 58.446 20.8906C54.3017 20.8906 51.4277 23.8149 51.4277 28.5564C51.4277 33.3397 54.3225 36.2222 58.446 36.2222Z" fill="#020001"/>
        <path d="M71.7555 24.625C68.4027 24.625 65.9453 26.8182 65.9453 30.4318C65.9453 34.0245 68.4027 36.2595 71.7555 36.2595C75.1084 36.2595 77.5662 34.0245 77.5662 30.4318C77.5662 26.8182 75.1084 24.625 71.7555 24.625ZM71.7555 32.8339C70.6103 32.8339 70.0272 31.8313 70.0272 30.4318C70.0272 29.0532 70.6103 28.0506 71.7555 28.0506C72.9012 28.0506 73.4841 29.0532 73.4841 30.4318C73.4841 31.8313 72.9012 32.8339 71.7555 32.8339Z" fill="#020001"/>
        <path d="M79.502 35.9683H83.5834V29.8064C83.5834 28.8664 84.1041 28.2398 85.0412 28.2398C85.9577 28.2398 86.4991 28.8664 86.4991 29.8064V35.9683H90.5812V29.8064C90.5812 28.8664 91.1019 28.2398 92.0391 28.2398C92.9548 28.2398 93.4969 28.8664 93.4969 29.8064V35.9683H97.5784V29.0544C97.5784 26.4643 96.0162 24.668 93.5177 24.668C91.3934 24.668 90.3105 25.8168 89.8941 26.4435C89.2277 25.3364 88.082 24.668 86.6241 24.668C84.9791 24.668 83.9584 25.5453 83.5834 26.0883V24.9186H79.502V35.9683Z" fill="#020001"/>
        <path d="M104.064 34.5699C104.21 34.8415 105.085 36.1783 107.146 36.1783C109.729 36.1783 111.603 34.1522 111.603 30.4342C111.603 26.7371 109.729 24.7109 107.146 24.7109C105.105 24.7109 104.168 26.1731 104.064 26.4237V24.9198H99.9824V40.0008H104.064V34.5699ZM104.022 30.4342C104.022 28.9929 104.689 28.1365 105.751 28.1365C106.834 28.1365 107.48 28.9929 107.48 30.4342C107.48 31.8963 106.834 32.7527 105.751 32.7527C104.689 32.7527 104.022 31.8963 104.022 30.4342Z" fill="#020001"/>
        <path d="M118.879 24.625C115.525 24.625 113.068 26.8182 113.068 30.4318C113.068 34.0245 115.525 36.2595 118.879 36.2595C122.232 36.2595 124.689 34.0245 124.689 30.4318C124.689 26.8182 122.232 24.625 118.879 24.625ZM118.879 32.8339C117.733 32.8339 117.15 31.8313 117.15 30.4318C117.15 29.0532 117.733 28.0506 118.879 28.0506C120.024 28.0506 120.608 29.0532 120.608 30.4318C120.608 31.8313 120.024 32.8339 118.879 32.8339Z" fill="#020001"/>
        <path d="M126.623 35.9683H130.705V29.8481C130.705 28.8873 131.247 28.2398 132.204 28.2398C133.142 28.2398 133.704 28.8873 133.704 29.8481V35.9683H137.786V29.0962C137.786 26.4853 136.244 24.668 133.787 24.668C132.121 24.668 131.101 25.5662 130.705 26.1301V24.9186H126.623V35.9683Z" fill="#020001"/>
        <path d="M145.312 24.625C141.938 24.625 139.668 26.9018 139.668 30.4318C139.668 33.9619 141.876 36.2595 145.541 36.2595C149.269 36.2595 150.747 34.0871 150.852 32.5206H146.791C146.645 32.7086 146.312 33.0846 145.541 33.0846C144.458 33.0846 143.75 32.3535 143.688 31.1629H150.914V30.4318C150.914 26.9018 148.79 24.625 145.312 24.625ZM145.312 27.4866C146.187 27.4866 146.77 28.0297 146.895 28.9279H143.709C143.812 28.0297 144.396 27.4866 145.312 27.4866Z" fill="#020001"/>
        <path d="M152.797 35.9683H156.879V29.8481C156.879 28.8873 157.42 28.2398 158.378 28.2398C159.315 28.2398 159.878 28.8873 159.878 29.8481V35.9683H163.96V29.0962C163.96 26.4853 162.419 24.668 159.961 24.668C158.295 24.668 157.275 25.5662 156.879 26.1301V24.9186H152.797V35.9683Z" fill="#020001"/>
        <path d="M167.768 32.5205C167.768 34.7137 168.913 35.967 171.496 35.967H174.911V32.3743H173.266C172.162 32.3743 171.85 31.9356 171.85 30.9749V28.2594H174.911V24.9174H171.85V21.1367H167.768V24.9174H165.311V28.2594H167.768V32.5205Z" fill="#020001"/>
        <path d="M182.208 32.0819C182.895 32.1446 183.061 32.3953 183.061 32.7921C183.061 33.2308 182.583 33.4606 181.791 33.4606C180.875 33.4606 180.479 33.0219 180.395 32.8548H176.23C176.397 34.0871 177.605 36.2595 181.791 36.2595C185.353 36.2595 187.143 34.8809 187.143 32.4997C187.143 30.0559 185.665 28.9279 182.291 28.7399C181.895 28.719 181.666 28.6981 181.333 28.6772C180.77 28.6355 180.479 28.4266 180.479 28.0506C180.479 27.612 180.875 27.3822 181.562 27.3822C182.353 27.3822 182.687 27.7373 182.79 27.8626H186.831C186.664 26.6303 185.602 24.625 181.5 24.625C178.418 24.625 176.418 25.9201 176.418 28.2804C176.418 30.766 178.418 31.7269 181.041 31.9775C181.437 32.0193 181.728 32.0401 182.208 32.0819Z" fill="#020001"/>
        <path d="M19.7461 0L22.99 1.99435L27.2559 6.21889L24.012 4.22454L19.7461 0Z" fill="#EF3124"/>
        <path d="M19.7461 0L22.99 1.99435L27.2559 6.21889L24.012 4.22454L19.7461 0Z" fill="#020001" fill-opacity="0.2"/>
        <path d="M24.0099 4.22266L27.2538 6.21701L7.50566 28.3753L4.26172 26.3835L24.0099 4.22266Z" fill="#EF3124"/>
        <path d="M24.0099 4.22266L27.2538 6.21701L7.50566 28.3753L4.26172 26.3835L24.0099 4.22266Z" fill="#020001" fill-opacity="0.4"/>
        <path d="M19.7456 0L24.0115 4.22454L4.26335 26.3854L0 22.1584L19.7456 0Z" fill="#EF3124"/>
        <path d="M4.3701 26.3594L30.7307 31.5964L29.035 38.0102L2.67188 32.7731L4.3701 26.3594Z" fill="#EF3124"/>
        <path d="M30.7308 31.5938L33.9747 33.5855L32.2791 39.9993L29.0352 38.0075L30.7308 31.5938Z" fill="#EF3124"/>
        <path d="M30.7308 31.5938L33.9747 33.5855L32.2791 39.9993L29.0352 38.0075L30.7308 31.5938Z" fill="#020001" fill-opacity="0.2"/>
        <path d="M29.035 38.0067L32.2789 39.9985L5.91578 34.7639L2.67188 32.7695L29.035 38.0067Z" fill="#EF3124"/>
        <path d="M29.035 38.0067L32.2789 39.9985L5.91578 34.7639L2.67188 32.7695L29.035 38.0067Z" fill="#020001" fill-opacity="0.4"/>
        <path d="M36.7584 29.4609L40.0024 31.4553L34.0408 33.6471L30.7969 31.6553L36.7584 29.4609Z" fill="#EF3124"/>
        <path d="M36.7584 29.4609L40.0024 31.4553L34.0408 33.6471L30.7969 31.6553L36.7584 29.4609Z" fill="#020001" fill-opacity="0.4"/>
        <path d="M30.1191 2.05859L33.363 4.05294L39.9983 31.4561L36.7544 29.4617L30.1191 2.05859Z" fill="#EF3124"/>
        <path d="M30.1191 2.05859L33.363 4.05294L39.9983 31.4561L36.7544 29.4617L30.1191 2.05859Z" fill="#020001" fill-opacity="0.2"/>
        <path d="M30.1203 2.05859L36.7556 29.4617L30.794 31.656L24.1562 4.25289L30.1203 2.05859Z" fill="#EF3124"/>
    </g>
    <defs>
        <clipPath id="clip0_3185_26564">
            <rect width="187.143" height="40" fill="white"/>
        </clipPath>
    </defs>
</svg>
