<svg width="24" height="24" viewBox="0 0 24 24" fill="none" xmlns="http://www.w3.org/2000/svg">
<path d="M9.79649 12.1525L9.6466 12.3024C9.06081 12.8882 9.06081 13.8379 9.6466 14.4237C10.2324 15.0095 11.1821 15.0095 11.7679 14.4237L12.1153 14.0764C12.1179 14.0803 12.1205 14.0843 12.1231 14.0882C12.4593 14.5978 12.7245 14.9998 13.1429 14.9998C13.6162 14.9998 13.8935 14.8282 14.2184 14.6272C14.6779 14.3429 15.2325 13.9998 16.5714 13.9998C18.8571 13.9998 20 15.9998 20 17.9998H4C4 15.9998 5.14286 11.9998 8.57143 11.9998C9.03991 11.9998 9.44438 12.0558 9.79649 12.1525Z" fill="#000"/>
<path d="M10.3536 13.7166C10.1583 13.5213 10.1583 13.2048 10.3536 13.0095L15.2773 8.08575C15.4726 7.89049 15.7892 7.89049 15.9844 8.08575C16.1797 8.28101 16.1797 8.59759 15.9844 8.79286L11.0607 13.7166C10.8654 13.9119 10.5488 13.9119 10.3536 13.7166Z" fill="#000"/>
<path fill-rule="evenodd" clip-rule="evenodd" d="M17.1818 7.47465L16.4746 6.76754C16.2794 6.57228 15.9628 6.57228 15.7675 6.76754C15.5723 6.9628 15.5723 7.27938 15.7675 7.47465L16.4746 8.18175C16.6699 8.37702 16.9865 8.37702 17.1818 8.18175C17.377 7.98649 17.377 7.66991 17.1818 7.47465ZM17.1818 6.06043C16.596 5.47465 15.6462 5.47465 15.0604 6.06043C14.4746 6.64622 14.4746 7.59597 15.0604 8.18175L15.7675 8.88886C16.3533 9.47465 17.3031 9.47465 17.8889 8.88886C18.4746 8.30307 18.4746 7.35333 17.8889 6.76754L17.1818 6.06043Z" fill="#000"/>
</svg>