<svg width="277" height="215" viewBox="0 0 277 215" fill="none" xmlns="http://www.w3.org/2000/svg">
<path d="M66 78.5714C66 71.6284 60.3716 66 53.4286 66H12.5714C5.62842 66 0 71.6284 0 78.5714C0 85.5144 5.62842 91.1429 12.5714 91.1429H66V78.5714Z" fill="#F6F7F8"/>
<path d="M122 20.0714C122 8.98628 130.986 0 142.071 0H192.929C204.014 0 213 8.98629 213 20.0714C213 31.1566 204.014 40.1429 192.929 40.1429H122V20.0714Z" fill="#F6F7F8"/>
<path d="M81.0001 117C92.3476 115.748 142.088 111.852 142.088 111.852C184.348 108.899 182.391 130.878 182 144C181.66 155.391 177.5 214 177.5 214H41.8711C41.8711 214 41.8711 159.164 41.8711 146.5C41.8711 124.109 66.131 118.64 81.0001 117Z" fill="#D6DDE2"/>
<path d="M91 116L131.5 112.5L128 152.5L91 116Z" fill="#F6F7F8"/>
<path d="M134 158.5L127.786 152.5M91 116L127.786 152.5M127.786 152.5L131.5 113" stroke="#18293D" stroke-linecap="round"/>
<path d="M102.408 59.6683C93.9635 57.025 85.0349 61.8743 82.4454 70.2439C79.8021 78.6885 84.6514 87.6172 93.0209 90.2066C101.466 92.8499 110.394 88.0007 112.984 79.6311C115.573 71.2615 110.853 62.3116 102.408 59.6683Z" fill="#17293E"/>
<path d="M93.8966 52.9993C95.6016 47.2907 101.683 44.0366 107.467 45.7954C113.175 47.5005 116.429 53.5818 114.67 59.3654C112.965 65.074 106.884 68.3281 101.1 66.5692C95.4456 64.7891 92.1915 58.7078 93.8966 52.9993Z" fill="#17293E"/>
<path d="M116.011 73.5058C107.566 70.8625 98.6378 75.7118 96.0483 84.0814C93.405 92.526 98.2543 101.455 106.624 104.044C115.069 106.687 123.997 101.838 126.587 93.4686C129.23 85.024 124.434 76.0203 116.011 73.5058Z" fill="#FCBD9A"/>
<path d="M82.8244 84.1468C84.0328 80.241 88.1049 78.0466 92.0107 79.255C95.9165 80.4635 98.1109 84.5356 96.9025 88.4414C95.6941 92.3472 91.622 94.5416 87.7162 93.3332C83.8104 92.1247 81.6697 87.9776 82.8244 84.1468Z" fill="#FCBD9A"/>
<path d="M113.344 62.1649C113.344 62.1649 95.5232 69.2763 93.9119 69.9394C92.3006 70.6025 91.6325 72.1688 92.3282 73.5762C93.1739 75.0912 97.9042 77.6858 95.8463 82.4598C96.3918 83.7597 96.8197 84.748 96.8197 84.748L118.852 75.8826L113.344 62.1649Z" fill="#FCBD9A"/>
<path d="M101.218 75.3319C101.627 74.1603 103.655 71.8017 106.519 72.983" stroke="#18293D" stroke-linecap="round"/>
<path d="M112.168 71.7401C112.955 69.8313 115.303 69.0127 116.515 70.4064" stroke="#18293D" stroke-linecap="round"/>
<path d="M126.586 93.4684C123.942 101.913 115.067 106.687 106.623 104.044C100.485 102.145 96.3816 96.9319 95.4782 91.0583C93.5854 93.2239 90.5779 94.2498 87.713 93.3328C83.8072 92.1244 81.6128 88.0523 82.8212 84.1465C84.0296 80.2407 88.1018 78.0463 92.0076 79.2547C93.6815 79.7726 95.0539 80.8697 96.0072 82.2346C97.6998 77.6532 93.1735 75.0912 92.4028 73.63C91.6534 72.2976 92.3752 70.6562 93.9865 69.9931C95.5979 69.33 113.419 62.2187 113.419 62.2187L118.284 74.4539C125.247 77.739 128.97 85.8607 126.586 93.4684Z" stroke="#17293E" stroke-miterlimit="10"/>
<path d="M87.1931 83.7563L92.2787 85.6966" stroke="#17293E" stroke-miterlimit="10" stroke-linecap="round"/>
<path d="M88.605 88.2889L90.1562 84.856" stroke="#17293E" stroke-miterlimit="10" stroke-linecap="round"/>
<path d="M114.992 80.9548L118.077 78.3938L112.336 74.043" stroke="#17293E" stroke-miterlimit="10" stroke-linecap="round"/>
<path d="M106.103 79.1184C104.492 79.7815 103.347 77.2566 105.087 76.5722C106.698 75.9091 107.843 78.4341 106.103 79.1184Z" fill="#17293E"/>
<path d="M115.501 75.8518C113.89 76.5149 112.746 73.9899 114.485 73.3055C116.15 72.5673 117.166 75.1136 115.501 75.8518Z" fill="#17293E"/>
<path d="M119.261 82.7069C118.776 84.9643 114.734 87.3535 111.959 84.1622" stroke="#18293D" stroke-linecap="round"/>
<path d="M64.665 151L36.9998 187.426H73.8867" stroke="#D6DDE2" stroke-width="55" stroke-linecap="round" stroke-linejoin="round"/>
<g filter="url(#filter0_b_20016654_20328)">
<path fill-rule="evenodd" clip-rule="evenodd" d="M80.8118 213.406C76.201 213.406 70.668 210.64 70.668 201.879C70.6679 195.424 75.2788 189.43 81.734 189.43C88.1891 189.43 93.0212 189.43 97.1683 190.449L106.868 193.595C116.027 196.453 125.134 199.434 134.221 202.571C135.836 203.129 136.866 204.618 136.915 206.231C137.787 207.056 138.28 208.264 138.147 209.551C137.92 211.748 135.954 213.345 133.757 213.118L129.496 212.678C128.84 213.148 128.037 213.425 127.168 213.425L103.168 213.425C103.039 213.425 102.91 213.418 102.784 213.406L80.8118 213.406Z" fill="#FCBD9A"/>
<path d="M70.668 201.879L71.168 201.879V201.879L70.668 201.879ZM80.8118 213.406V213.906V213.406ZM81.734 189.43V188.93V189.43ZM97.1683 190.449L97.3226 189.973L97.3053 189.968L97.2877 189.964L97.1683 190.449ZM106.868 193.595L106.714 194.071L106.72 194.072L106.868 193.595ZM134.221 202.571L134.057 203.044L134.221 202.571ZM136.915 206.231L136.415 206.246L136.421 206.453L136.571 206.594L136.915 206.231ZM138.147 209.551L138.644 209.602V209.602L138.147 209.551ZM133.757 213.118L133.808 212.621L133.757 213.118ZM129.496 212.678L129.548 212.18L129.359 212.161L129.205 212.271L129.496 212.678ZM127.168 213.425V212.925V213.425ZM103.168 213.425V213.925V213.425ZM102.784 213.406L102.831 212.909L102.807 212.906H102.784V213.406ZM70.168 201.879C70.168 206.371 71.5906 209.398 73.674 211.297C75.7468 213.187 78.4137 213.906 80.8118 213.906V212.906C78.5991 212.906 76.1941 212.242 74.3477 210.558C72.5119 208.885 71.168 206.148 71.168 201.879L70.168 201.879ZM81.734 188.93C74.9296 188.93 70.1679 195.227 70.168 201.879L71.168 201.879C71.1679 195.621 75.6281 189.93 81.734 189.93V188.93ZM97.2877 189.964C93.069 188.927 88.1685 188.93 81.734 188.93V189.93C88.2097 189.93 92.9734 189.933 97.049 190.935L97.2877 189.964ZM107.023 193.119L97.3226 189.973L97.0141 190.925L106.714 194.071L107.023 193.119ZM106.72 194.072C115.874 196.929 124.975 199.909 134.057 203.044L134.384 202.098C125.292 198.96 116.181 195.977 107.017 193.118L106.72 194.072ZM134.057 203.044C135.471 203.531 136.372 204.834 136.415 206.246L137.414 206.216C137.359 204.402 136.202 202.726 134.384 202.098L134.057 203.044ZM136.571 206.594C137.336 207.317 137.766 208.374 137.65 209.499L138.644 209.602C138.794 208.154 138.239 206.795 137.258 205.868L136.571 206.594ZM137.65 209.499C137.451 211.422 135.731 212.82 133.808 212.621L133.706 213.616C136.178 213.871 138.389 212.074 138.644 209.602L137.65 209.499ZM133.808 212.621L129.548 212.18L129.445 213.175L133.706 213.616L133.808 212.621ZM129.205 212.271C128.631 212.683 127.929 212.925 127.168 212.925V213.925C128.145 213.925 129.05 213.613 129.787 213.084L129.205 212.271ZM127.168 212.925L103.168 212.925V213.925L127.168 213.925V212.925ZM103.168 212.925C103.054 212.925 102.942 212.919 102.831 212.909L102.736 213.904C102.878 213.918 103.023 213.925 103.168 213.925V212.925ZM80.8118 213.906L102.784 213.906V212.906L80.8118 212.906V213.906Z" fill="#18293D"/>
</g>
<path d="M128.668 213.449C130.668 212.449 131.668 209.074 127.168 207.949C125.568 207.549 112.168 204.949 105.168 203.449" stroke="#18293D" stroke-linecap="round"/>
<path d="M136.997 212C138.997 210.5 138.997 206.125 134.497 205C129.997 203.875 107.997 197 107.997 197" stroke="#18293D" stroke-linecap="round"/>
<path d="M62.551 206.556C61.0063 206.54 59.7464 205.224 59.7626 203.68C59.7789 202.135 61.0946 200.875 62.6392 200.891C64.1838 200.908 65.4438 202.223 65.4275 203.768C65.4112 205.313 64.0956 206.573 62.551 206.556Z" stroke="#17293E" stroke-miterlimit="10"/>
<path d="M70.7148 200.449C69.0128 206.676 69.0942 210.762 63.0129 210.95C57.021 211.219 45.434 210.747 45.434 210.747" stroke="#17293E" stroke-miterlimit="10" stroke-linecap="round"/>
<path d="M13 214H227" stroke="#18293D"/>
<path fill-rule="evenodd" clip-rule="evenodd" d="M177.5 191L138.805 163.128L179 123L190.5 143.5L202 110.5L225 115C225 115 222.5 162.628 220 174.5C217.5 186.372 214.853 190.548 206.5 195.5C198.146 200.453 188.5 199 177.5 191Z" fill="#D6DDE2"/>
<path d="M229.415 89.0282C231.067 90.382 230.792 92.6069 229.769 94.5813C227.102 98.1143 220.756 105.096 219.368 107.441L206.337 104.835C206.337 104.835 213.25 98.4923 221.974 90.9356C225.089 88.2375 227.766 87.6761 229.415 89.0282Z" fill="#FCBD9A" stroke="#17293E"/>
<path fill-rule="evenodd" clip-rule="evenodd" d="M201.992 112.061C203.338 107.774 205.624 102.139 217.195 101.363C228.974 100.574 244.56 101.363 244.56 101.363C245.985 99.3662 247.943 95.6626 249.635 92.4612C250.735 90.3815 251.722 88.5137 252.378 87.4636C253.464 85.7262 256.222 83.12 257.96 84.4231C258.897 85.1261 259.404 85.9556 259.358 87.216C260.603 85.9922 261.628 85.0108 262.299 84.4141C266.182 80.9584 270.487 83.7787 267.705 88.1594C267.456 88.5512 267.158 88.9837 266.817 89.4495C270.341 88.7802 272.65 92.0691 269.319 94.845C264.887 98.5382 253.252 106.326 249.867 108.575C247.903 110.667 244.035 111.095 240.042 111.536C238.676 111.687 237.295 111.84 235.97 112.061C231.454 112.817 226.665 113.96 226.665 113.96L226.665 118.414C226.664 124.061 222.165 129.914 213.665 129.914C202.992 128.658 200.689 117.869 201.558 113.96C201.558 113.96 201.81 112.64 201.992 112.061Z" fill="#FCBD9A"/>
<path d="M217.195 101.363L217.228 101.862L217.195 101.363ZM201.992 112.061L201.515 111.911L201.515 111.911L201.992 112.061ZM244.56 101.363L244.535 101.863L244.808 101.877L244.967 101.654L244.56 101.363ZM249.635 92.4612L250.077 92.6949L249.635 92.4612ZM252.378 87.4636L252.802 87.7286L252.378 87.4636ZM257.96 84.4231L257.66 84.8231L257.66 84.8231L257.96 84.4231ZM259.358 87.216L258.859 87.198L258.814 88.4533L259.709 87.5725L259.358 87.216ZM262.299 84.4141L262.631 84.7877L262.299 84.4141ZM267.705 88.1594L268.127 88.4274L268.127 88.4274L267.705 88.1594ZM266.817 89.4495L266.413 89.1544L265.666 90.1771L266.91 89.9407L266.817 89.4495ZM269.319 94.845L268.998 94.4609L269.319 94.845ZM249.867 108.575L249.59 108.159L249.542 108.191L249.502 108.233L249.867 108.575ZM240.042 111.536L239.987 111.039L240.042 111.536ZM235.97 112.061L235.888 111.568L235.97 112.061ZM226.665 113.96L226.549 113.474L226.165 113.565L226.165 113.96L226.665 113.96ZM226.665 118.414L226.165 118.414L226.165 118.414L226.665 118.414ZM213.665 129.914L213.606 130.41L213.635 130.414L213.665 130.414L213.665 129.914ZM201.558 113.96L202.046 114.068L202.047 114.061L202.049 114.054L201.558 113.96ZM217.161 100.864C211.297 101.258 207.711 102.888 205.418 105.03C203.131 107.165 202.192 109.754 201.515 111.911L202.469 112.211C203.138 110.081 204.015 107.709 206.1 105.761C208.179 103.819 211.522 102.245 217.228 101.862L217.161 100.864ZM244.56 101.363C244.585 100.864 244.585 100.864 244.585 100.864C244.585 100.864 244.585 100.864 244.584 100.864C244.584 100.864 244.583 100.864 244.582 100.864C244.58 100.864 244.577 100.864 244.574 100.863C244.566 100.863 244.555 100.862 244.539 100.862C244.509 100.86 244.465 100.858 244.406 100.855C244.288 100.85 244.115 100.842 243.89 100.831C243.439 100.811 242.783 100.784 241.959 100.753C240.312 100.691 237.992 100.617 235.304 100.567C229.93 100.469 223.072 100.468 217.161 100.864L217.228 101.862C223.097 101.469 229.921 101.469 235.285 101.567C237.966 101.616 240.279 101.69 241.922 101.752C242.743 101.783 243.397 101.81 243.845 101.83C244.069 101.84 244.242 101.849 244.358 101.854C244.416 101.857 244.461 101.859 244.49 101.86C244.505 101.861 244.516 101.862 244.524 101.862C244.527 101.862 244.53 101.862 244.532 101.863C244.533 101.863 244.534 101.863 244.534 101.863C244.534 101.863 244.534 101.863 244.535 101.863C244.535 101.863 244.535 101.863 244.56 101.363ZM249.193 92.2276C247.493 95.4438 245.553 99.1099 244.153 101.073L244.967 101.654C246.416 99.6224 248.393 95.8813 250.077 92.6949L249.193 92.2276ZM251.954 87.1986C251.286 88.2682 250.288 90.1567 249.193 92.2276L250.077 92.6949C251.181 90.6063 252.158 88.7593 252.802 87.7286L251.954 87.1986ZM258.26 84.0231C257.112 83.1624 255.716 83.6633 254.644 84.3891C253.536 85.1395 252.529 86.2795 251.954 87.1986L252.802 87.7286C253.314 86.9103 254.228 85.8785 255.205 85.2172C256.218 84.5313 257.07 84.3807 257.66 84.8231L258.26 84.0231ZM259.858 87.234C259.884 86.5291 259.754 85.918 259.47 85.3777C259.188 84.8411 258.769 84.4048 258.26 84.0231L257.66 84.8231C258.088 85.1444 258.391 85.4743 258.585 85.8433C258.777 86.2087 258.879 86.6426 258.859 87.198L259.858 87.234ZM261.966 84.0406C261.285 84.6462 260.252 85.6354 259.008 86.8596L259.709 87.5725C260.953 86.349 261.97 85.3753 262.631 84.7877L261.966 84.0406ZM268.127 88.4274C268.865 87.2655 269.163 86.1593 269.078 85.1961C268.992 84.2247 268.517 83.4313 267.781 82.9339C266.312 81.9405 264.011 82.221 261.966 84.0406L262.631 84.7877C264.47 83.1515 266.263 83.1143 267.221 83.7623C267.699 84.0856 268.022 84.6026 268.082 85.2841C268.143 85.9737 267.936 86.8629 267.283 87.8914L268.127 88.4274ZM267.221 89.7446C267.566 89.2727 267.871 88.8309 268.127 88.4274L267.283 87.8914C267.042 88.2715 266.75 88.6947 266.413 89.1544L267.221 89.7446ZM269.639 95.2291C271.423 93.7422 271.83 91.9752 271.076 90.6131C270.345 89.293 268.642 88.594 266.724 88.9583L266.91 89.9407C268.516 89.6357 269.73 90.2465 270.201 91.0976C270.649 91.9066 270.545 93.1719 268.998 94.4609L269.639 95.2291ZM250.144 108.992C253.518 106.749 265.181 98.944 269.639 95.2291L268.998 94.4609C264.593 98.1324 252.986 105.902 249.59 108.159L250.144 108.992ZM240.097 112.033C242.085 111.813 244.086 111.593 245.836 111.16C247.582 110.728 249.152 110.067 250.231 108.917L249.502 108.233C248.618 109.175 247.272 109.774 245.595 110.189C243.922 110.603 241.992 110.817 239.987 111.039L240.097 112.033ZM236.053 112.554C237.361 112.336 238.728 112.184 240.097 112.033L239.987 111.039C238.623 111.19 237.228 111.344 235.888 111.568L236.053 112.554ZM226.665 113.96C226.781 114.446 226.781 114.446 226.781 114.446C226.781 114.446 226.781 114.446 226.781 114.446C226.781 114.446 226.781 114.446 226.782 114.446C226.782 114.446 226.783 114.446 226.784 114.446C226.786 114.445 226.79 114.444 226.794 114.443C226.803 114.441 226.817 114.438 226.835 114.434C226.87 114.425 226.924 114.413 226.993 114.396C227.132 114.364 227.336 114.316 227.595 114.257C228.113 114.138 228.851 113.972 229.729 113.783C231.487 113.403 233.805 112.93 236.053 112.554L235.888 111.568C233.619 111.948 231.284 112.424 229.518 112.805C228.635 112.996 227.893 113.163 227.372 113.282C227.111 113.342 226.906 113.39 226.765 113.423C226.695 113.439 226.641 113.452 226.604 113.46C226.586 113.465 226.572 113.468 226.563 113.47C226.558 113.471 226.555 113.472 226.552 113.473C226.551 113.473 226.55 113.473 226.55 113.473C226.549 113.474 226.549 113.474 226.549 113.474C226.549 113.474 226.549 113.474 226.549 113.474C226.549 113.474 226.549 113.474 226.665 113.96ZM227.165 118.414L227.165 113.96L226.165 113.96L226.165 118.414L227.165 118.414ZM213.665 130.414C222.437 130.414 227.164 124.341 227.165 118.414L226.165 118.414C226.164 123.78 221.892 129.414 213.665 129.414L213.665 130.414ZM201.07 113.852C200.605 115.941 200.994 119.737 202.843 123.169C204.708 126.631 208.082 129.76 213.606 130.41L213.723 129.417C208.575 128.811 205.46 125.919 203.723 122.695C201.97 119.441 201.641 115.889 202.046 114.068L201.07 113.852ZM201.515 111.911C201.416 112.226 201.303 112.723 201.218 113.123C201.174 113.327 201.136 113.512 201.11 113.647C201.096 113.714 201.085 113.769 201.078 113.806C201.074 113.825 201.072 113.84 201.07 113.85C201.069 113.855 201.068 113.859 201.067 113.862C201.067 113.863 201.067 113.864 201.067 113.865C201.067 113.865 201.067 113.865 201.067 113.866C201.067 113.866 201.067 113.866 201.067 113.866C201.067 113.866 201.067 113.866 201.067 113.866C201.067 113.866 201.067 113.866 201.558 113.96C202.049 114.054 202.049 114.054 202.049 114.054C202.049 114.054 202.049 114.054 202.049 114.054C202.049 114.054 202.049 114.054 202.049 114.054C202.049 114.054 202.049 114.054 202.049 114.053C202.049 114.053 202.049 114.052 202.049 114.051C202.05 114.048 202.051 114.045 202.051 114.04C202.053 114.03 202.056 114.016 202.06 113.998C202.067 113.961 202.077 113.908 202.09 113.843C202.116 113.711 202.153 113.531 202.196 113.332C202.282 112.928 202.386 112.475 202.469 112.211L201.515 111.911Z" fill="#18293D"/>
<path d="M259.328 87.4609C259.328 91.3702 253.681 102.664 253.681 102.664" stroke="#17293E" stroke-linecap="round"/>
<path d="M267.148 89.1982L258.895 99.1887" stroke="#17293E" stroke-linecap="round"/>
<path d="M80.67 189.449L52.7324 182.048M37.67 191.449C43.17 180.949 52.7324 182.048 52.7324 182.048M52.7324 182.048L62.4153 165.449M190 143.5L182.5 165.449" stroke="#18293D" stroke-linecap="round"/>
<path d="M211.564 137.274C211.22 138.78 209.666 139.731 208.161 139.386C206.655 139.042 205.704 137.488 206.048 135.983C206.392 134.477 207.946 133.525 209.452 133.87C210.958 134.214 211.909 135.768 211.564 137.274Z" stroke="#17293E" stroke-miterlimit="10"/>
<path d="M207 127.5C212.5 131 217.067 131.777 215.957 137.759C214.946 143.671 212.02 154.892 212.02 154.892" stroke="#17293E" stroke-miterlimit="10" stroke-linecap="round"/>
<circle cx="240.5" cy="50.5" r="27.5" fill="#2FC26E"/>
<path d="M228 50.5L237.5 60L254 42" stroke="white" stroke-width="5" stroke-linejoin="round"/>
<defs>
<filter id="filter0_b_20016654_20328" x="66.0063" y="184.768" width="76.8234" height="33.318" filterUnits="userSpaceOnUse" color-interpolation-filters="sRGB">
<feFlood flood-opacity="0" result="BackgroundImageFix"/>
<feGaussianBlur in="BackgroundImage" stdDeviation="2.08084"/>
<feComposite in2="SourceAlpha" operator="in" result="effect1_backgroundBlur_20016654_20328"/>
<feBlend mode="normal" in="SourceGraphic" in2="effect1_backgroundBlur_20016654_20328" result="shape"/>
</filter>
</defs>
</svg>
